<svg width="46" height="42" viewBox="0 0 46 42" fill="none" xmlns="http://www.w3.org/2000/svg">
<rect x="0.61377" width="45" height="42" rx="21" fill="#EDA415"/>
<path d="M15.9421 13.8283H17.19C17.9645 13.8283 18.5741 14.4953 18.5096 15.2626L17.9143 22.4056C17.8139 23.5745 18.739 24.5786 19.9152 24.5786H27.553C28.5857 24.5786 29.4893 23.7323 29.5682 22.7068L29.9555 17.3281C30.0415 16.1376 29.1379 15.1694 27.9402 15.1694H18.6817" stroke="white" stroke-width="1.47531" stroke-miterlimit="10" stroke-linecap="round" stroke-linejoin="round"/>
<path d="M26.1617 28.1716C26.6568 28.1716 27.0582 27.7702 27.0582 27.2751C27.0582 26.78 26.6568 26.3787 26.1617 26.3787C25.6666 26.3787 25.2653 26.78 25.2653 27.2751C25.2653 27.7702 25.6666 28.1716 26.1617 28.1716Z" stroke="white" stroke-width="1.47531" stroke-miterlimit="10" stroke-linecap="round" stroke-linejoin="round"/>
<path d="M20.4244 28.1716C20.9195 28.1716 21.3209 27.7702 21.3209 27.2751C21.3209 26.78 20.9195 26.3787 20.4244 26.3787C19.9293 26.3787 19.528 26.78 19.528 27.2751C19.528 27.7702 19.9293 28.1716 20.4244 28.1716Z" stroke="white" stroke-width="1.47531" stroke-miterlimit="10" stroke-linecap="round" stroke-linejoin="round"/>
<path d="M20.9622 18.1313H29.5682" stroke="white" stroke-width="1.47531" stroke-miterlimit="10" stroke-linecap="round" stroke-linejoin="round"/>
</svg>
