<svg width="16" height="15" viewBox="0 0 16 15" fill="none" xmlns="http://www.w3.org/2000/svg">
<path d="M9.08977 1.15463L10.388 3.75117C10.5651 4.10524 11.0372 4.45932 11.4306 4.51833L13.7812 4.91174C15.2861 5.16746 15.6401 6.24936 14.5582 7.33125L12.7289 9.17046C12.424 9.47536 12.2469 10.0753 12.3453 10.5081L12.8665 12.78C13.2796 14.5701 12.3256 15.2684 10.7421 14.334L8.53899 13.0259C8.13573 12.7899 7.4866 12.7899 7.08335 13.0259L4.87039 14.3242C3.2869 15.2586 2.33286 14.5602 2.74595 12.7702L3.26723 10.4982C3.36558 10.0753 3.18854 9.47536 2.88365 9.16063L1.0641 7.34108C-0.0177899 6.25919 0.336284 5.16746 1.8411 4.92158L4.19175 4.52816C4.58517 4.45932 5.05726 4.11508 5.2343 3.76101L6.53257 1.16447C7.23088 -0.251828 8.39145 -0.251828 9.08977 1.15463Z" fill="#ACACAC"/>
</svg>
