<svg width="118" height="16" viewBox="0 0 118 16" fill="none" xmlns="http://www.w3.org/2000/svg">
<path d="M8.78007 1.96637L10.0783 4.56291C10.2554 4.91698 10.7275 5.27105 11.1209 5.33007L13.4715 5.72348C14.9764 5.9792 15.3304 7.06109 14.2485 8.14298L12.4192 9.9822C12.1143 10.2871 11.9372 10.8871 12.0356 11.3198L12.5569 13.5918C12.9699 15.3818 12.0159 16.0801 10.4324 15.1458L8.22929 13.8377C7.82604 13.6016 7.17691 13.6016 6.77366 13.8377L4.5607 15.1359C2.9772 16.0703 2.02317 15.372 2.43626 13.5819L2.95753 11.31C3.05589 10.8871 2.87885 10.2871 2.57395 9.97236L0.754409 8.15282C-0.327482 7.07093 0.0265912 5.9792 1.5314 5.73332L3.88206 5.3399C4.27547 5.27105 4.74757 4.92682 4.92461 4.57274L6.22288 1.9762C6.92119 0.559909 8.08176 0.559909 8.78007 1.96637Z" fill="#ACACAC"/>
<path d="M34.3481 1.96637L35.6464 4.56291C35.8234 4.91698 36.2955 5.27105 36.6889 5.33007L39.0396 5.72348C40.5444 5.9792 40.8985 7.06109 39.8166 8.14298L37.9872 9.9822C37.6823 10.2871 37.5053 10.8871 37.6036 11.3198L38.1249 13.5918C38.538 15.3818 37.584 16.0801 36.0005 15.1458L33.7973 13.8377C33.3941 13.6016 32.745 13.6016 32.3417 13.8377L30.1288 15.1359C28.5453 16.0703 27.5912 15.372 28.0043 13.5819L28.5256 11.31C28.6239 10.8871 28.4469 10.2871 28.142 9.97236L26.3225 8.15282C25.2406 7.07093 25.5946 5.9792 27.0995 5.73332L29.4501 5.3399C29.8435 5.27105 30.3156 4.92682 30.4927 4.57274L31.7909 1.9762C32.4892 0.559909 33.6498 0.559909 34.3481 1.96637Z" fill="#ACACAC"/>
<path d="M59.9162 1.96637L61.2145 4.56291C61.3915 4.91698 61.8636 5.27105 62.2571 5.33007L64.6077 5.72348C66.1125 5.9792 66.4666 7.06109 65.3847 8.14298L63.5553 9.9822C63.2504 10.2871 63.0734 10.8871 63.1718 11.3198L63.693 13.5918C64.1061 15.3818 63.1521 16.0801 61.5686 15.1458L59.3655 13.8377C58.9622 13.6016 58.3131 13.6016 57.9098 13.8377L55.6969 15.1359C54.1134 16.0703 53.1593 15.372 53.5724 13.5819L54.0937 11.31C54.1921 10.8871 54.015 10.2871 53.7101 9.97236L51.8906 8.15282C50.8087 7.07093 51.1628 5.9792 52.6676 5.73332L55.0182 5.3399C55.4116 5.27105 55.8837 4.92682 56.0608 4.57274L57.359 1.9762C58.0574 0.559909 59.2179 0.559909 59.9162 1.96637Z" fill="#ACACAC"/>
<path d="M85.4843 1.96637L86.7826 4.56291C86.9596 4.91698 87.4317 5.27105 87.8251 5.33007L90.1758 5.72348C91.6806 5.9792 92.0347 7.06109 90.9528 8.14298L89.1234 9.9822C88.8185 10.2871 88.6415 10.8871 88.7398 11.3198L89.2611 13.5918C89.6742 15.3818 88.7201 16.0801 87.1366 15.1458L84.9335 13.8377C84.5303 13.6016 83.8811 13.6016 83.4779 13.8377L81.2649 15.1359C79.6814 16.0703 78.7274 15.372 79.1405 13.5819L79.6618 11.31C79.7601 10.8871 79.5831 10.2871 79.2782 9.97236L77.4586 8.15282C76.3767 7.07093 76.7308 5.9792 78.2356 5.73332L80.5863 5.3399C80.9797 5.27105 81.4518 4.92682 81.6288 4.57274L82.9271 1.9762C83.6254 0.559909 84.786 0.559909 85.4843 1.96637Z" fill="#ACACAC"/>
<path d="M111.052 1.96637L112.351 4.56291C112.528 4.91698 113 5.27105 113.393 5.33007L115.744 5.72348C117.249 5.9792 117.603 7.06109 116.521 8.14298L114.692 9.9822C114.387 10.2871 114.21 10.8871 114.308 11.3198L114.829 13.5918C115.242 15.3818 114.288 16.0801 112.705 15.1458L110.502 13.8377C110.098 13.6016 109.449 13.6016 109.046 13.8377L106.833 15.1359C105.25 16.0703 104.296 15.372 104.709 13.5819L105.23 11.31C105.328 10.8871 105.151 10.2871 104.846 9.97236L103.027 8.15282C101.945 7.07093 102.299 5.9792 103.804 5.73332L106.154 5.3399C106.548 5.27105 107.02 4.92682 107.197 4.57274L108.495 1.9762C109.194 0.559909 110.354 0.559909 111.052 1.96637Z" fill="#ACACAC"/>
</svg>
